<?xml version="1.0" encoding="UTF-8" standalone="no"?>
<!DOCTYPE svg PUBLIC "-//W3C//DTD SVG 1.1//EN" "http://www.w3.org/Graphics/SVG/1.1/DTD/svg11.dtd">
<svg width="100%" height="100%" viewBox="0 0 1920 1080" version="1.1" xmlns="http://www.w3.org/2000/svg" xmlns:xlink="http://www.w3.org/1999/xlink" xml:space="preserve" xmlns:serif="http://www.serif.com/" style="fill-rule:evenodd;clip-rule:evenodd;stroke-linecap:round;stroke-linejoin:round;stroke-miterlimit:1.5;">
    <g transform="matrix(1,0,0,1,-2086.55,-1171.02)">
        <g id="V4" transform="matrix(1.1473,0,0,1.12223,2081.15,1172.57)">
            <rect x="4.704" y="-1.378" width="1673.5" height="962.368" style="fill:none;"/>
            <g transform="matrix(-0.346804,0,0,-0.35455,1624.57,935.975)">
                <path d="M205.78,78.949L205.78,180.397" style="fill:none;stroke:rgb(243,243,243);stroke-width:2.51px;"/>
            </g>
            <g transform="matrix(-2.41921e-17,-0.35455,0.346804,-2.47325e-17,1508.23,962.959)">
                <path d="M205.78,78.949L205.78,180.397" style="fill:none;stroke:rgb(243,243,243);stroke-width:2.51px;"/>
            </g>
            <g transform="matrix(-0.871614,0,0,-0.891082,1705.94,978.334)">
                <g transform="matrix(0.397887,0,0,0.397887,829.408,351.025)">
                    <path d="M205.78,78.949L205.78,180.397" style="fill:none;stroke:rgb(243,243,243);stroke-width:2.51px;"/>
                </g>
                <g transform="matrix(2.43636e-17,0.397887,-0.397887,2.43636e-17,962.88,320.743)">
                    <path d="M205.78,78.949L205.78,180.397" style="fill:none;stroke:rgb(243,243,243);stroke-width:2.51px;"/>
                </g>
            </g>
            <g transform="matrix(-0.871614,1.54578e-17,-1.51201e-17,-0.891082,1129.76,637.962)">
                <g transform="matrix(0.397887,0,0,0.397887,829.408,351.025)">
                    <path d="M205.78,78.949L205.78,180.397" style="fill:none;stroke:rgb(243,243,243);stroke-width:2.51px;"/>
                </g>
                <g transform="matrix(2.43636e-17,0.397887,-0.397887,2.43636e-17,962.88,320.743)">
                    <path d="M205.78,78.949L205.78,180.397" style="fill:none;stroke:rgb(243,243,243);stroke-width:2.51px;"/>
                </g>
            </g>
            <g transform="matrix(-0.871614,1.54578e-17,-1.51201e-17,-0.891082,1093.28,1031.18)">
                <g transform="matrix(0.397887,0,0,0.397887,829.408,351.025)">
                    <path d="M205.78,78.949L205.78,180.397" style="fill:none;stroke:rgb(243,243,243);stroke-width:2.51px;"/>
                </g>
                <g transform="matrix(2.43636e-17,0.397887,-0.397887,2.43636e-17,962.88,320.743)">
                    <path d="M205.78,78.949L205.78,180.397" style="fill:none;stroke:rgb(243,243,243);stroke-width:2.51px;"/>
                </g>
            </g>
            <g transform="matrix(-0.871614,1.54578e-17,-1.51201e-17,-0.891082,1584.32,540.047)">
                <g transform="matrix(0.397887,0,0,0.397887,829.408,351.025)">
                    <path d="M205.78,78.949L205.78,180.397" style="fill:none;stroke:rgb(243,243,243);stroke-width:2.51px;"/>
                </g>
                <g transform="matrix(2.43636e-17,0.397887,-0.397887,2.43636e-17,962.88,320.743)">
                    <path d="M205.78,78.949L205.78,180.397" style="fill:none;stroke:rgb(243,243,243);stroke-width:2.51px;"/>
                </g>
            </g>
            <g transform="matrix(-0.346804,0,0,-0.35455,1522.71,374.905)">
                <path d="M205.78,78.949L205.78,180.397" style="fill:none;stroke:rgb(243,243,243);stroke-width:2.51px;"/>
            </g>
            <g transform="matrix(-2.41921e-17,-0.35455,0.346804,-2.47325e-17,1406.37,401.889)">
                <path d="M205.78,78.949L205.78,180.397" style="fill:none;stroke:rgb(243,243,243);stroke-width:2.51px;"/>
            </g>
            <g transform="matrix(-0.346804,0,0,-0.35455,685.047,844.277)">
                <path d="M205.78,78.949L205.78,180.397" style="fill:none;stroke:rgb(243,243,243);stroke-width:2.51px;"/>
            </g>
            <g transform="matrix(-2.41921e-17,-0.35455,0.346804,-2.47325e-17,568.711,871.261)">
                <path d="M205.78,78.949L205.78,180.397" style="fill:none;stroke:rgb(243,243,243);stroke-width:2.51px;"/>
            </g>
            <g transform="matrix(-0.871614,0,0,-0.891082,1705.94,978.334)">
                <rect x="376.348" y="431.563" width="14.826" height="14.826" style="fill:rgb(243,243,243);"/>
            </g>
            <g transform="matrix(-0.871614,1.54578e-17,-1.51201e-17,-0.891082,1894.45,538.492)">
                <rect x="376.348" y="431.563" width="14.826" height="14.826" style="fill:rgb(243,243,243);"/>
            </g>
            <g transform="matrix(-0.871614,1.54578e-17,-1.51201e-17,-0.891082,885.002,889.744)">
                <rect x="376.348" y="431.563" width="14.826" height="14.826" style="fill:rgb(243,243,243);"/>
            </g>
            <g transform="matrix(-0.871614,1.54578e-17,-1.51201e-17,-0.891082,1432.29,557.143)">
                <rect x="376.348" y="431.563" width="14.826" height="14.826" style="fill:rgb(243,243,243);"/>
            </g>
            <g transform="matrix(-0.871614,1.54578e-17,-1.51201e-17,-0.891082,641.761,1254.98)">
                <rect x="376.348" y="431.563" width="14.826" height="14.826" style="fill:rgb(243,243,243);"/>
            </g>
            <g transform="matrix(-0.871614,1.54578e-17,-1.51201e-17,-0.891082,485.175,504.3)">
                <rect x="376.348" y="431.563" width="14.826" height="14.826" style="fill:rgb(243,243,243);"/>
            </g>
            <g transform="matrix(-0.871614,1.54578e-17,-1.51201e-17,-0.891082,1427.73,1217.68)">
                <rect x="376.348" y="431.563" width="14.826" height="14.826" style="fill:rgb(243,243,243);"/>
            </g>
        </g>
    </g>
</svg>
